<?xml version="1.0" encoding="utf-8"?>
<svg version="1.1" id="svg1" x="0px" y="0px" viewBox="0 0 64 64" style="enable-background:new 0 0 64 64;" xmlns="http://www.w3.org/2000/svg">
  <path d="M32,0L32,0c2.2,0,4,2.1,4,4.6v54.8c0,2.5-1.8,4.6-4,4.6l0,0c-2.2,0-4-2.1-4-4.6V4.6 C28,2.1,29.8,0,32,0z" style="fill: rgb(255, 255, 255); stroke: rgb(0, 0, 0);"></path>
  <path d="M59.7,16L59.7,16c1.1,1.9,0.2,4.5-2,5.8L10.3,49.2c-2.2,1.3-4.9,0.7-6-1.2l0,0 c-1.1-1.9-0.2-4.5,2-5.8l47.5-27.4C55.9,13.6,58.6,14.1,59.7,16z" style="fill: rgb(255, 255, 255); stroke: rgb(0, 0, 0);"></path>
  <path d="M59.7,48L59.7,48c-1.1,1.9-3.8,2.4-6,1.2L6.3,21.8c-2.2-1.3-3.1-3.9-2-5.8l0,0 c1.1-1.9,3.8-2.4,6-1.2l47.5,27.4C59.9,43.5,60.8,46.1,59.7,48z" style="fill: rgb(255, 255, 255); stroke: rgb(0, 0, 0);"></path>
  <path d="M 53 32 C 53 43.6 43.6 53 32 53 C 20.4 53 11 43.6 11 32 C 11 20.4 20.4 11 32 11 C 43.6 11 53 20.4 53 32 Z" style="fill: rgb(255, 255, 255); stroke: rgb(0, 0, 0);"></path>
  <rect x="28.5" y="8.358" width="7" height="50" style="fill: rgb(255, 255, 255);"></rect>
  <rect x="42.791" y="0.769" width="7.066" height="3.938" style="fill: rgb(255, 255, 255); --darkreader-inline-fill:#e8e6e3;" transform="matrix(0.508657, 0.860969, -0.860969, 0.508657, -6.490917, 0.695956)"></rect>
  <rect x="42.791" y="1.373" width="7.066" height="7.03" style="fill: rgb(255, 255, 255); --darkreader-inline-fill:#e8e6e3;" rx="1.774" ry="1.774" transform="matrix(0.862895, -0.505384, 0.505384, 0.862895, 8.192664, 40.437073)"></rect>
  <rect x="42.791" y="1.387" width="7.066" height="7.104" style="fill: rgb(255, 255, 255); --darkreader-inline-fill:#e8e6e3;" rx="1.405" ry="1.405" transform="matrix(0.868593, 0.495527, -0.495527, 0.868593, -23.533638, -5.520943)"></rect>
  <rect x="43.136" y="1.373" width="7.123" height="7.03" style="fill: rgb(255, 255, 255); --darkreader-inline-fill:#e8e6e3;" transform="matrix(0.503507, -0.863991, 0.863991, 0.503507, 22.534199, 80.415756)" rx="1.309" ry="1.309"></rect>
</svg>
